<svg width="512" height="512" viewBox="0 0 512 512" fill="none" xmlns="http://www.w3.org/2000/svg">
<path d="M511.973 409.718C511.317 448.628 480.326 479.733 442.335 480.705C441.137 480.739 439.938 480.739 438.723 480.705H73.4955C33.3789 480.705 0.422446 448.046 0.228384 407.421C-0.282389 302.9 84.0277 147.035 162.472 66.5443C184.384 44.0538 214.273 31.3439 245.457 31.0523C249.069 31.0018 252.586 31.0018 256.102 31.0018C271.365 31.0018 290.274 39.3905 310.876 54.0426C397.629 115.67 514.05 287.985 511.973 409.718Z" fill="#F7EDE3"/>
<path d="M315.965 481H104.328V309.34C104.328 306.627 106.486 304.431 109.146 304.431H311.145C313.807 304.431 315.963 306.629 315.963 309.34V481H315.965Z" fill="#0D5933"/>
<path d="M27.806 407.418C27.2953 302.898 111.604 147.033 190.048 66.5425C209.616 46.4593 235.546 34.2035 263.075 31.5943C260.597 31.216 258.189 31 255.873 31C252.356 31 248.84 31 245.227 31.0473C214.044 31.3389 184.157 44.0488 162.243 66.5393C83.8031 147.033 -0.508463 302.898 0.00230926 407.418C0.193267 448.043 33.1497 480.702 73.2694 480.702H101.073C60.955 480.704 27.9985 448.045 27.806 407.418Z" fill="#EBE1D8"/>
</svg>
