<svg width="512" height="512" viewBox="0 0 512 512" fill="none" xmlns="http://www.w3.org/2000/svg">
<g clip-path="url(#clip0_309_94)">
<rect width="512" height="512" rx="256" fill="#55AAFF"/>
<mask id="mask0_309_94" style="mask-type:luminance" maskUnits="userSpaceOnUse" x="0" y="0" width="512" height="512">
<path d="M512 0H0V512H512V0Z" fill="white"/>
</mask>
<g mask="url(#mask0_309_94)">
<mask id="mask1_309_94" style="mask-type:luminance" maskUnits="userSpaceOnUse" x="75" y="75" width="360" height="360">
<path d="M435 75H75V435H435V75Z" fill="white"/>
</mask>
<g mask="url(#mask1_309_94)">
<path d="M434.981 363.083C434.52 390.442 412.729 412.312 386.017 412.996C385.174 413.02 384.331 413.02 383.477 412.996H126.676C98.4695 412.996 75.297 390.033 75.1606 361.468C74.8014 287.977 134.082 178.384 189.238 121.789C204.645 105.976 225.661 97.0389 247.587 96.8338C250.127 96.7983 252.6 96.7983 255.072 96.7983C265.803 96.7983 279.099 102.697 293.585 112.999C354.583 156.331 436.441 277.49 434.981 363.083Z" fill="#F7EDE3"/>
<path d="M297.163 413.203H148.356V292.505C148.356 290.597 149.873 289.053 151.743 289.053H293.774C295.646 289.053 297.162 290.599 297.162 292.505V413.203H297.163Z" fill="#0D5933"/>
<path d="M94.5511 361.466C94.192 287.975 153.472 178.383 208.628 121.788C222.386 107.667 240.618 99.0493 259.975 97.2147C258.232 96.9487 256.539 96.7969 254.911 96.7969C252.438 96.7969 249.966 96.7969 247.425 96.8301C225.5 97.0352 204.485 105.972 189.077 121.785C133.924 178.383 74.6425 287.975 75.0016 361.466C75.1359 390.03 98.3084 412.994 126.518 412.994H146.067C117.859 412.995 94.6864 390.032 94.5511 361.466Z" fill="#EBE1D8"/>
</g>
</g>
</g>
<defs>
<clipPath id="clip0_309_94">
<rect width="512" height="512" rx="256" fill="white"/>
</clipPath>
</defs>
</svg>
